<?xml version="1.0" encoding="UTF-8" standalone="no"?>
<svg
   version="1.1"
   width="512"
   height="512"
   id="svg10"
   xmlns="http://www.w3.org/2000/svg"
   xmlns:svg="http://www.w3.org/2000/svg">
  <defs
     id="defs10" />
  <path
     d="m 128.35001,38.866287 c 0.92125,-0.0023 1.8425,-0.0045 2.79167,-0.0069 3.076,-0.0063 6.15195,-0.0055 9.22795,-0.0047 2.20964,-0.003 4.41928,-0.0064 6.62892,-0.01018 5.99354,-0.0088 11.98706,-0.01118 17.9806,-0.01181 5.00285,-9.5e-4 10.00569,-0.0046 15.00854,-0.0082 11.12516,-0.0077 22.25032,-0.01067 33.37549,-0.01 1.0002,6e-5 1.0002,6e-5 2.02061,1.21e-4 0.66762,4.1e-5 1.33524,8.2e-5 2.02309,1.24e-4 10.83086,4.07e-4 21.66168,-0.0092 32.49253,-0.02326 11.12747,-0.01436 22.25494,-0.02109 33.38243,-0.02041 6.24481,2.56e-4 12.48958,-0.0026 18.73439,-0.01318 5.86868,-0.0097 11.73728,-0.0098 17.60596,-0.0025 2.15551,10e-4 4.31103,-0.0013 6.46653,-0.0074 2.9385,-0.0077 5.87674,-0.0031 8.81525,0.0046 1.28418,-0.0077 1.28418,-0.0077 2.59431,-0.01559 5.14452,0.02997 9.32323,0.27059 13.29494,3.902717 0.53359,0.640906 1.06718,1.281812 1.61694,1.942139 0.597,0.716235 1.19399,1.43247 1.80908,2.17041 2.8352,3.578396 5.54617,7.233784 8.21826,10.935059 5.10531,7.002506 10.29193,13.93355 15.5625,20.8125 5.64885,7.379457 11.20615,14.817528 16.69556,22.316163 5.14305,7.00753 10.40861,13.91862 15.71265,20.80493 13.71822,17.8774 13.71822,17.8774 13.71205,25.46586 0.002,1.94779 0.002,1.94779 0.004,3.93493 -0.004,1.4473 -0.007,2.8946 -0.0109,4.34189 -2.8e-4,1.51752 -1.2e-4,3.03504 4.4e-4,4.55255 2.9e-4,4.12786 -0.006,8.2557 -0.0126,12.38355 -0.006,4.31084 -0.007,8.62168 -0.008,12.93252 -0.003,8.16687 -0.0113,16.33371 -0.0213,24.50057 -0.0112,9.29612 -0.0167,18.59224 -0.0217,27.88836 -0.0105,19.12624 -0.0281,38.25246 -0.0503,57.37868 0.57542,-0.008 1.15084,-0.0157 1.7437,-0.0238 2.63098,-0.0314 5.26193,-0.0507 7.89302,-0.07 1.35781,-0.0188 1.35781,-0.0188 2.74304,-0.0381 7.71454,-0.0422 13.66764,0.70927 19.65931,5.89746 7.867,8.22312 8.4047,16.65057 8.36499,27.56006 0.006,1.33469 0.0127,2.66939 0.0208,4.00407 0.0179,3.60553 0.0168,7.21081 0.0111,10.81636 -0.003,3.01915 0.003,6.03826 0.009,9.0574 0.014,7.12784 0.0125,14.25556 10e-4,21.3834 -0.0115,7.33233 0.003,14.66429 0.0294,21.99657 0.0222,6.31452 0.0288,12.62892 0.0229,18.94348 -0.003,3.76289 -10e-4,7.52555 0.0162,11.28841 0.0156,3.54115 0.0114,7.08177 -0.007,10.6229 -0.005,1.90407 0.009,3.80817 0.0237,5.71219 -0.0706,8.29341 -1.20232,15.54882 -6.39038,22.25188 -0.62391,0.5066 -1.24781,1.0132 -1.89063,1.53515 -0.92039,0.78698 -0.92039,0.78698 -1.85937,1.58985 -8.23315,5.07173 -16.24815,4.90117 -25.60448,4.86033 -1.55554,0.004 -3.11108,0.01 -4.66662,0.0163 -4.263,0.0144 -8.52581,0.0102 -12.78883,0.003 -4.602,-0.005 -9.20396,0.008 -13.80595,0.018 -9.01103,0.0172 -18.022,0.018 -27.03305,0.0128 -7.3243,-0.004 -14.64858,-0.003 -21.97288,0.003 -1.56395,10e-4 -1.56395,10e-4 -3.15949,0.002 -2.11812,0.002 -4.23625,0.003 -6.35437,0.005 -19.86053,0.0137 -39.72102,0.008 -59.58155,-0.003 -18.16763,-0.01 -36.33515,0.003 -54.50275,0.0269 -18.65795,0.0244 -37.31584,0.034 -55.9738,0.0273 -10.47368,-0.003 -20.94728,-10e-4 -31.42094,0.0163 -8.91556,0.0147 -17.83097,0.0154 -26.74652,-0.002 -4.54798,-0.009 -9.09572,-0.0106 -13.643683,0.005 -4.16561,0.0138 -8.330776,0.009 -12.496361,-0.0102 -1.50462,-0.004 -3.009276,-8.2e-4 -4.513865,0.01 -9.766834,0.0629 -17.4073,-0.88206 -25.437987,-6.76657 -6.828085,-6.98687 -7.806194,-14.68459 -7.827942,-24.19977 -0.003,-0.72902 -0.0059,-1.45805 -0.009,-2.20917 -0.0086,-2.43173 -0.01019,-4.86341 -0.01169,-7.29516 -0.0046,-1.74818 -0.0097,-3.49637 -0.01505,-5.24455 -0.01309,-4.7419 -0.01956,-9.48379 -0.02401,-14.2257 -0.0029,-2.96537 -0.007,-5.93074 -0.0115,-8.8961 -0.01367,-9.28622 -0.02334,-18.57242 -0.0272,-27.85865 -0.0045,-10.70439 -0.02203,-21.40865 -0.051,-32.11301 -0.02164,-8.28471 -0.03171,-16.56938 -0.03304,-24.85413 -10e-4,-4.94331 -0.0069,-9.8865 -0.02482,-14.82978 -0.01653,-4.65233 -0.01861,-9.30445 -0.0099,-13.9568 7.68e-4,-1.7019 -0.0035,-3.40381 -0.01346,-5.10567 -0.06278,-11.4495 0.09214,-21.97146 7.624981,-31.2701 5.613231,-5.43743 12.48219,-6.82473 20.042969,-6.78906 1.205273,0.003 2.410547,0.006 3.652344,0.01 1.254257,0.008 2.508515,0.0168 3.800781,0.0254 1.90459,0.007 1.90459,0.007 3.847656,0.0137 3.134162,0.0118 6.268229,0.0282 9.402344,0.0488 -0.0028,-0.9503 -0.0055,-1.90059 -0.0084,-2.87969 -0.06663,-23.13603 -0.115915,-46.27205 -0.147057,-69.40816 -0.01546,-11.18851 -0.03654,-22.37695 -0.07088,-33.56542 -0.02993,-9.75327 -0.04926,-19.50649 -0.05595,-29.2598 -0.0039,-5.16303 -0.01307,-10.32593 -0.03492,-15.488921 -0.02042,-4.863174 -0.02663,-9.726162 -0.02213,-14.589375 -8.23e-4,-1.78133 -0.0068,-3.562668 -0.01829,-5.343961 C 94.508053,54.644558 94.508053,54.644558 102,46 c 8.47373,-6.310853 16.06068,-7.152422 26.35001,-7.133713 z"
     fill="#d7dee2"
     id="path1" />
  <path
     d="m 74.515625,246.90234 c 1.690444,0.004 1.690444,0.004 3.415039,0.008 1.425381,0.009 2.850762,0.0182 4.319336,0.0276 4.5375,0.0206 9.075,0.0412 13.75,0.0625 0,16.17 0,32.34 0,49 6.50635,-0.0321 6.50635,-0.0321 13.14414,-0.0649 39.78146,-0.1945 79.56298,-0.36895 119.34463,-0.52157 5.21452,-0.02 10.42904,-0.0402 15.64355,-0.0605 1.03811,-0.004 2.07623,-0.008 3.1458,-0.0122 16.80626,-0.0658 33.61245,-0.14588 50.41864,-0.2312 17.24625,-0.0872 34.49251,-0.15917 51.73889,-0.2169 10.64091,-0.0361 21.28161,-0.0841 31.92239,-0.14744 7.298,-0.0423 14.59594,-0.0697 21.89403,-0.0854 4.20988,-0.01 8.41947,-0.0256 12.62923,-0.0593 3.85814,-0.0308 7.71587,-0.0427 11.57412,-0.0401 1.39186,-0.002 2.78372,-0.0114 4.17547,-0.0281 9.1847,-0.10525 17.29497,0.54027 24.77146,6.32695 0.5066,0.62391 1.01319,1.24781 1.53515,1.89062 0.78698,0.92039 0.78698,0.92039 1.58985,1.85938 4.77778,7.75597 4.90911,14.81279 4.87671,23.71631 0.006,1.3347 0.0127,2.66939 0.0208,4.00407 0.0179,3.60553 0.0168,7.21081 0.0111,10.81637 -0.003,3.01915 0.003,6.03825 0.009,9.0574 0.014,7.12783 0.0125,14.25555 0.001,21.38339 -0.0115,7.33233 0.003,14.6643 0.0294,21.99658 0.0222,6.31451 0.0288,12.62892 0.0229,18.94347 -0.003,3.76289 -0.001,7.52555 0.0163,11.28842 0.0156,3.54115 0.0114,7.08176 -0.007,10.62289 -0.005,1.90407 0.009,3.80817 0.0237,5.71219 -0.0706,8.29342 -1.20232,15.54882 -6.39038,22.25188 -0.62391,0.5066 -1.24781,1.0132 -1.89063,1.53516 -0.61359,0.52464 -1.22718,1.04929 -1.85937,1.58984 -8.23315,5.07173 -16.24815,4.90117 -25.60448,4.86034 -1.55554,0.004 -3.11109,0.01 -4.66663,0.0163 -4.26299,0.0144 -8.5258,0.0102 -12.78883,0.003 -4.602,-0.005 -9.20396,0.008 -13.80595,0.018 -9.01103,0.0172 -18.022,0.018 -27.03305,0.0128 -7.3243,-0.004 -14.64858,-0.003 -21.97288,0.003 -1.56394,10e-4 -1.56394,10e-4 -3.15947,0.002 -2.11813,0.002 -4.23625,0.003 -6.35438,0.005 -19.86054,0.0137 -39.72102,0.008 -59.58155,-0.003 -18.16762,-0.01 -36.33515,0.003 -54.50275,0.0269 -18.65794,0.0244 -37.31584,0.034 -55.9738,0.0274 -10.47368,-0.003 -20.94728,-10e-4 -31.42095,0.0162 -8.91555,0.0147 -17.83097,0.0154 -26.74651,-0.002 -4.54798,-0.009 -9.09572,-0.0106 -13.643686,0.005 -4.16561,0.0138 -8.330777,0.009 -12.496362,-0.0102 -1.50462,-0.004 -3.009276,-8.2e-4 -4.513865,0.01 -9.766834,0.0629 -17.4073,-0.88206 -25.437987,-6.76657 -6.828085,-6.98688 -7.806194,-14.6846 -7.827942,-24.19977 -0.003,-0.72903 -0.0059,-1.45806 -0.009,-2.20917 -0.0086,-2.43174 -0.01019,-4.86342 -0.01169,-7.29517 -0.0046,-1.74818 -0.0097,-3.49636 -0.01505,-5.24455 -0.01309,-4.7419 -0.01956,-9.48378 -0.02401,-14.2257 -0.0029,-2.96537 -0.007,-5.93073 -0.0115,-8.8961 -0.01367,-9.28622 -0.02334,-18.57242 -0.0272,-27.85864 -0.0045,-10.7044 -0.02203,-21.40866 -0.051,-32.11302 -0.02164,-8.28471 -0.0317,-16.56938 -0.03304,-24.85412 -10e-4,-4.94332 -0.0069,-9.88651 -0.02482,-14.82979 -0.01653,-4.65233 -0.01861,-9.30445 -0.0099,-13.9568 7.67e-4,-1.7019 -0.0035,-3.4038 -0.01346,-5.10567 -0.06278,-11.4495 0.09214,-21.97146 7.624981,-31.2701 5.687776,-5.51136 12.611411,-6.82535 20.261506,-6.79058 z"
     fill="#1fb35b"
     id="path2" />
  <path
     d="m 344,40 c 4.07352,0.688512 5.76493,1.284787 8.41016,4.519531 0.59699,0.725259 1.19399,1.450518 1.80908,2.197754 2.81316,3.606122 5.54121,7.262069 8.21826,10.970215 5.1053,7.002507 10.29193,13.93355 15.5625,20.8125 5.64885,7.379457 11.20615,14.817529 16.69556,22.31616 5.14305,7.00753 10.40861,13.91862 15.71264,20.80493 3.21699,4.19233 6.39731,8.41121 9.50196,12.6875 0.56984,0.78045 1.13969,1.5609 1.7268,2.36499 1.45744,2.48754 1.86695,4.51046 2.36304,7.32642 -7.94557,0.093 -15.89091,0.16391 -23.83689,0.20725 -3.69031,0.0208 -7.38024,0.049 -11.07034,0.0945 -3.56619,0.0437 -7.13203,0.0674 -10.69847,0.0777 -2.0118,0.0109 -4.02346,0.0421 -6.03505,0.0737 C 365.04829,144.45497 360.20769,143.94883 354,140 c -0.88687,-0.55688 -1.77375,-1.11375 -2.6875,-1.6875 -6.92282,-6.92282 -7.84722,-13.4635 -7.89255,-22.90922 0.014,-2.77154 0.0525,-5.54214 0.0918,-8.31344 0.009,-1.93769 0.0164,-3.87539 0.0214,-5.81309 0.019,-5.075214 0.068,-10.149699 0.12352,-15.224626 0.0513,-5.188499 0.074,-10.377116 0.0992,-15.565796 C 343.80932,60.323901 343.89455,50.162011 344,40 Z"
     fill="#afbdc7"
     id="path3" />
  <path
     d="m 255.25781,335.57446 c 2.10535,-0.0119 4.20777,-0.0611 6.3125,-0.11157 7.6834,-0.093 13.55843,0.20981 19.42969,5.53711 0.65613,0.58523 1.31226,1.17047 1.98828,1.77343 5.32372,6.43873 7.6889,12.25117 7.42187,20.69141 C 290,366 290,366 287.9375,369.1875 284.24906,371.46334 282.26303,371.69758 278,371 c -2.375,-1.375 -2.375,-1.375 -4,-4 -0.34571,-2.53799 -0.50002,-5.00127 -0.53125,-7.5625 C 272.83393,356.13647 271.59772,355.09423 269,353 c -2.74368,-0.59545 -2.74368,-0.59545 -5.75391,-0.4961 -1.1015,-6.4e-4 -2.20301,-10e-4 -3.33789,-0.002 -1.14533,0.02 -2.29066,0.04 -3.4707,0.0606 -1.1492,-0.007 -2.2984,-0.0142 -3.48242,-0.0215 -5.73872,-0.28892 -5.73872,-0.28892 -10.7793,1.85572 -1.52868,2.08446 -1.6089,3.40842 -1.61328,5.97827 -0.0193,0.75023 -0.0387,1.50047 -0.0586,2.27343 0.69843,3.31069 2.19392,4.88658 4.49609,7.35157 2.88014,1.56691 2.88014,1.56691 6.16406,2.68359 1.20528,0.45311 2.41055,0.90621 3.65235,1.37305 1.26906,0.46158 2.53859,0.92186 3.80859,1.38086 24.73358,9.05864 24.73358,9.05864 30.6875,21.25 1.76175,8.48841 1.44946,15.58638 -2.89453,23.1914 -3.35818,5.02339 -7.65252,9.1128 -13.41797,11.1211 -4.45282,0.49273 -8.8613,0.53397 -13.33325,0.46655 -2.09611,-0.0289 -4.18967,-0.0206 -6.28589,-0.008 -8.22016,-0.0108 -15.27402,-0.0366 -21.8418,-5.50977 -0.63164,-0.74636 -1.26328,-1.49273 -1.91406,-2.26171 -0.64711,-0.73864 -1.29422,-1.47727 -1.96094,-2.23829 -3.24885,-4.78176 -3.97227,-9.37014 -4.03906,-15.07421 -0.0284,-1.10602 -0.0567,-2.21204 -0.0859,-3.35157 0.46094,-3.02343 0.46094,-3.02343 2.23438,-5.38672 2.97559,-2.18732 4.73308,-2.29099 8.32421,-2.07031 1.90235,0.4336 1.90235,0.4336 4.33985,2.3086 1.84881,3.69761 2.16915,6.73 2.38672,10.82031 0.094,2.46474 0.094,2.46474 1.17578,5.30469 4.41644,0.11608 8.8325,0.18721 13.25,0.25 1.25426,0.0335 2.50851,0.067 3.80078,0.10156 1.80791,0.0193 1.80791,0.0193 3.65234,0.0391 1.11021,0.0209 2.22041,0.0419 3.36426,0.0635 3.58967,-0.55584 4.72967,-1.62807 6.93262,-4.4541 0.58643,-1.98038 0.58643,-1.98038 0.4375,-4 -0.002,-0.99 -0.002,-0.99 -0.004,-2 -0.59244,-2.7327 -1.52066,-3.93409 -3.4336,-6 -2.34776,-1.15644 -4.57197,-2.11726 -7.01172,-3.02337 -0.68706,-0.26866 -1.37411,-0.53732 -2.08199,-0.81412 -2.92498,-1.14337 -5.86053,-2.25841 -8.7957,-3.37533 -20.44892,-7.82673 -20.44892,-7.82673 -25.04809,-15.91211 -0.38028,-0.64196 -0.76055,-1.28391 -1.15235,-1.94532 -3.11929,-6.61344 -3.04546,-15.39567 -1.29687,-22.3789 2.70701,-6.0699 7.90928,-11.17348 14.08105,-13.61792 5.44207,-1.53576 10.95076,-1.3434 16.56348,-1.3584 z"
     fill="#d4dee0"
     id="path4" />
  <path
     d="m 173.5,335.5 c 0.96809,-0.0155 1.93617,-0.0309 2.93359,-0.0469 10.84306,0.0582 18.50987,3.59097 26.29688,11.04688 4.95407,5.45715 9.56951,11.85038 9.26953,19.5 -1.4375,2.9375 -1.4375,2.9375 -4,5 -2.79244,0.651 -5.2342,0.78328 -8,0 -3.15546,-2.61571 -4.88051,-5.39299 -6.75,-9 -2.39338,-3.99682 -4.27778,-6.66704 -8.64453,-8.44922 -3.54971,-0.75039 -7.05287,-0.93447 -10.66797,-0.98828 -0.67273,-0.0105 -1.34546,-0.021 -2.03857,-0.0317 -7.71467,0.13773 -13.44569,3.016 -18.89893,8.46924 -4.74156,7.25079 -4.63552,13.93665 -4.5625,22.4375 -0.0239,1.27166 -0.0477,2.54332 -0.0723,3.85352 0.014,9.03019 1.34765,15.30211 7.73242,21.86523 0.9726,0.66516 0.9726,0.66516 1.96485,1.34375 0.97646,0.69609 0.97646,0.69609 1.97265,1.40625 6.71505,3.738 17.20041,3.03078 24.54688,1.58594 5.53581,-2.24927 8.00406,-6.90776 10.875,-11.9336 1.37912,-2.28688 2.43753,-3.93698 4.54297,-5.55859 3.09563,-0.3931 5.04337,-0.62339 8,0 2.5625,2.0625 2.5625,2.0625 4,5 0.31269,7.97368 -5.0424,15.1483 -10.25,20.8125 -8.07684,7.62613 -17.14832,9.39958 -27.8125,9.5 -1.4995,0.0435 -1.4995,0.0435 -3.0293,0.0879 C 159.04564,431.50059 150.45712,427.20839 142,419 c -8.56031,-9.86457 -10.69905,-21.75883 -10.57642,-34.49072 0.0139,-2.00868 -0.0204,-4.01271 -0.0583,-6.021 C 131.3842,365.67731 135.09489,355.33181 144,346 c 8.55078,-7.96291 18.00054,-10.68375 29.5,-10.5 z"
     fill="#d4dee0"
     id="path5" />
  <path
     d="m 171.7052,231.49207 c 1.17083,-0.009 1.17083,-0.009 2.36531,-0.0189 2.61808,-0.016 5.23523,-0.003 7.85332,0.009 1.87585,-0.005 3.7517,-0.0125 5.62755,-0.0212 5.09708,-0.0183 10.19384,-0.0112 15.29093,0.002 5.32995,0.0101 10.65988,7.4e-4 15.98984,-0.006 8.95135,-0.007 17.90256,0.002 26.85388,0.0214 10.3543,0.0218 20.70828,0.0147 31.06256,-0.007 8.88418,-0.0181 17.76826,-0.0207 26.65244,-0.0102 5.30868,0.006 10.61722,0.007 15.92589,-0.006 4.99053,-0.0115 9.98066,-0.004 14.97115,0.0196 1.8334,0.005 3.66684,0.004 5.50024,-0.005 2.49929,-0.0109 4.99728,0.003 7.49649,0.0227 0.72879,-0.009 1.45758,-0.0179 2.20846,-0.027 3.43452,0.0534 5.19756,0.30177 7.94291,2.44172 1.67555,2.25723 2.12176,3.31476 2.11633,6.09325 0.0219,0.66 0.0438,1.32 0.0664,2 -1.0031,3.18996 -2.86037,4.20688 -5.62891,6 -2.71857,0.38729 -5.02955,0.54583 -7.7428,0.51467 -0.77253,0.007 -1.54507,0.0139 -2.34102,0.0211 -2.58498,0.0183 -5.16905,0.008 -7.75407,-0.002 -1.85468,0.007 -3.70935,0.0158 -5.56401,0.0261 -5.0351,0.0225 -10.06988,0.0196 -15.10501,0.0107 -4.20249,-0.005 -8.40492,0.002 -12.60741,0.01 -9.91263,0.017 -19.8251,0.0134 -29.73773,-0.003 -10.22995,-0.0169 -20.45946,-0.001 -30.68936,0.0312 -8.78146,0.0267 -17.56278,0.034 -26.34427,0.0255 -5.24559,-0.005 -10.49091,-0.003 -15.73647,0.0178 -4.93152,0.0183 -9.86242,0.0124 -14.79391,-0.0122 -1.81041,-0.005 -3.62087,-0.001 -5.43125,0.0111 -2.47067,0.0159 -4.93932,0.001 -7.40989,-0.0217 -1.07612,0.0178 -1.07612,0.0178 -2.17399,0.0359 -3.82558,-0.0714 -5.47243,-0.58834 -8.51758,-2.98066 C 160,243.00001 160,243.00001 159.4375,239.4375 c 1.1936,-7.29423 5.6485,-8.02647 12.2677,-7.94543 z"
     fill="#23b35e"
     id="path6" />
  <path
     d="m 171.7052,183.49207 c 1.17083,-0.009 1.17083,-0.009 2.36531,-0.0189 2.61808,-0.016 5.23523,-0.003 7.85332,0.009 1.87585,-0.005 3.7517,-0.0125 5.62755,-0.0212 5.09708,-0.0183 10.19384,-0.0112 15.29093,0.002 5.32995,0.0101 10.65988,7.4e-4 15.98984,-0.006 8.95135,-0.007 17.90256,0.002 26.85388,0.0214 10.3543,0.0218 20.70828,0.0147 31.06256,-0.007 8.88418,-0.0181 17.76826,-0.0207 26.65244,-0.0102 5.30868,0.006 10.61722,0.007 15.92589,-0.006 4.99053,-0.0115 9.98066,-0.004 14.97115,0.0196 1.8334,0.005 3.66684,0.004 5.50024,-0.005 2.49929,-0.0109 4.99728,0.003 7.49649,0.0227 0.72879,-0.009 1.45758,-0.0179 2.20846,-0.027 3.43452,0.0534 5.19756,0.30177 7.94291,2.44172 1.67555,2.25723 2.12176,3.31476 2.11633,6.09325 0.0219,0.66 0.0438,1.32 0.0664,2 -1.0031,3.18996 -2.86037,4.20688 -5.62891,6 -2.71857,0.38729 -5.02955,0.54583 -7.7428,0.51467 -0.77253,0.007 -1.54507,0.0139 -2.34102,0.0211 -2.58498,0.0183 -5.16905,0.008 -7.75407,-0.002 -1.85468,0.007 -3.70935,0.0158 -5.56401,0.0261 -5.0351,0.0225 -10.06988,0.0196 -15.10501,0.0107 -4.20249,-0.005 -8.40492,0.002 -12.60741,0.01 -9.91263,0.017 -19.8251,0.0134 -29.73773,-0.003 -10.22995,-0.0169 -20.45946,-0.001 -30.68936,0.0312 -8.78146,0.0267 -17.56278,0.034 -26.34427,0.0255 -5.24559,-0.005 -10.49091,-0.003 -15.73647,0.0178 -4.93152,0.0183 -9.86242,0.0124 -14.79391,-0.0122 -1.81041,-0.005 -3.62087,-0.001 -5.43125,0.0111 -2.47067,0.0159 -4.93932,0.001 -7.40989,-0.0217 -1.07612,0.0178 -1.07612,0.0178 -2.17399,0.0359 -3.82558,-0.0714 -5.47243,-0.58834 -8.51758,-2.98066 C 160,195.00001 160,195.00001 159.4375,191.4375 c 1.1936,-7.29423 5.6485,-8.02647 12.2677,-7.94543 z"
     fill="#22b35d"
     id="path7" />
  <path
     d="m 311,336 c 4.36067,3.56533 6.34744,7.40676 8.23437,12.58984 0.2797,0.73346 0.5594,1.46693 0.84757,2.22261 0.90144,2.37064 1.7846,4.74766 2.66806,7.12505 0.925,2.44377 1.85473,4.8857 2.78464,7.32761 0.61641,1.61978 1.23126,3.24016 1.84454,4.86114 2.55789,6.75351 5.23704,13.44947 7.99582,20.12375 0.37479,0.90871 0.74959,1.81742 1.13574,2.75366 0.82686,1.99998 1.65751,3.99839 2.48926,5.99634 2.31521,-2.31521 3.00044,-4.15508 4.19898,-7.19653 0.43062,-1.08486 0.86124,-2.16971 1.30491,-3.28743 0.46149,-1.17705 0.92298,-2.3541 1.39845,-3.56682 0.73092,-1.84284 1.46184,-3.68567 2.19304,-5.52839 1.28504,-3.24274 2.56318,-6.48819 3.84212,-9.73333 1.52177,-3.85952 3.04505,-7.71841 4.57484,-11.57475 0.95247,-2.40233 1.90088,-4.80626 2.84482,-7.21195 0.65066,-1.64146 0.65066,-1.64146 1.31447,-3.31608 0.5672,-1.4399 0.5672,-1.4399 1.14586,-2.90889 3.16795,-7.16855 3.16795,-7.16855 6.18251,-8.67583 3.83615,-0.3552 6.1463,-0.54725 9.4375,1.5625 2.15836,3.36703 1.84865,5.46202 1.5625,9.4375 -0.74047,2.78503 -1.78452,5.40973 -2.87402,8.07495 -0.30569,0.77488 -0.61138,1.54977 -0.92633,2.34813 -1.00773,2.5449 -2.03276,5.08241 -3.05903,7.61989 -0.70862,1.77373 -1.41647,3.54777 -2.12359,5.3221 -1.48201,3.7108 -2.97248,7.41806 -4.46918,11.12297 -1.9163,4.74525 -3.81245,9.49824 -5.70248,14.25401 -1.45765,3.66192 -2.92529,7.31977 -4.39604,10.97645 -0.70304,1.75109 -1.40311,3.50337 -2.10014,5.25686 -0.97584,2.45014 -1.96486,4.89454 -2.95759,7.33787 -0.28484,0.72268 -0.56968,1.44536 -0.86316,2.18994 -1.61082,3.9194 -3.14426,6.88155 -6.52844,9.49683 -3.5,0.5 -3.5,0.5 -7,0 -4.00722,-3.09676 -5.58502,-7.10323 -7.3916,-11.68677 -0.3127,-0.76962 -0.6254,-1.53925 -0.94757,-2.3322 -1.02768,-2.53775 -2.04007,-5.08127 -3.05146,-7.62556 -0.71117,-1.77136 -1.42291,-3.54249 -2.13519,-5.3134 -1.48946,-3.7103 -2.97123,-7.42356 -4.44781,-11.13899 -1.8902,-4.75405 -3.80047,-9.49972 -5.71677,-14.2433 -1.47389,-3.65548 -2.93636,-7.31545 -4.39553,-10.97683 -0.69966,-1.75129 -1.40298,-3.50112 -2.11006,-5.24943 -0.98838,-2.44837 -1.96105,-4.90244 -2.92999,-7.35857 -0.43941,-1.07491 -0.43941,-1.07491 -0.88769,-2.17154 C 300.25991,348.4675 299.57396,344.83629 300,340 c 2.88445,-4.49974 5.88539,-4.80757 11,-4 z"
     fill="#d5dee0"
     id="path8" />
  <path
     d="m 82.4375,246.875 c 4.475625,0.0412 8.95125,0.0825 13.5625,0.125 0,16.17 0,32.34 0,49 -4.57875,0.10312 -9.1575,0.20625 -13.875,0.3125 -1.422964,0.0455 -2.845928,0.091 -4.312012,0.13794 -8.938602,0.0968 -15.789755,-1.10384 -22.68164,-7.06738 -5.027655,-5.03336 -8.119576,-12.1097 -8.13916,-19.219 1.112447,-8.10497 4.665733,-14.39085 10.945312,-19.60156 8.081183,-4.12305 15.566246,-3.80385 24.5,-3.6875 z"
     fill="#198043"
     id="path9" />
  <path
     d="m 174.58008,135.48242 c 1.07681,-0.007 2.15361,-0.014 3.26305,-0.0212 3.56297,-0.0176 7.12514,-0.006 10.68812,0.008 2.47335,-0.003 4.9467,-0.007 7.42005,-0.0116 5.18512,-0.006 10.36996,0.003 15.55505,0.0214 6.65182,0.0228 13.30273,0.01 19.95457,-0.0143 5.10776,-0.0144 10.21536,-0.01 15.32312,5.2e-4 2.45285,0.003 4.90572,-6.2e-4 7.35856,-0.01 3.42615,-0.0101 6.85125,0.005 10.27732,0.0276 1.01727,-0.008 2.03454,-0.0162 3.08263,-0.0245 6.8653,0.0829 6.8653,0.0829 10.12331,2.44947 1.47296,2.24313 1.94185,3.42848 1.93664,6.09265 0.0219,0.66 0.0438,1.32 0.0664,2 -1.03528,3.2923 -2.69962,4.20634 -5.62891,6 -3.49542,0.60035 -6.95443,0.5567 -10.49414,0.53344 -1.05584,0.009 -2.11167,0.0172 -3.19951,0.0261 -3.48778,0.0227 -6.97476,0.0159 -10.4626,0.007 -2.42468,0.005 -4.84937,0.0115 -7.27405,0.0188 -5.08078,0.0104 -10.16129,0.006 -15.24206,-0.009 -6.51384,-0.0172 -13.0268,0.006 -19.54054,0.0415 -5.00658,0.022 -10.01295,0.0205 -15.01957,0.0122 -2.40179,-8.2e-4 -4.8036,0.006 -7.20535,0.0208 -3.35656,0.0174 -6.71154,0.003 -10.06804,-0.0198 -1.4901,0.0175 -1.4901,0.0175 -3.0103,0.0354 -4.62715,-0.0639 -6.79899,-0.1581 -10.60457,-2.98332 C 159.41404,146.16337 159.31089,144.21124 160,140 c 3.4556,-5.48935 8.759,-4.56391 14.58008,-4.51758 z"
     fill="#21b35d"
     id="path10" />
</svg>
