<?xml version="1.0" encoding="UTF-8" standalone="no"?>
<svg
   version="1.1"
   width="512"
   height="512"
   id="svg12"
   xmlns="http://www.w3.org/2000/svg"
   xmlns:svg="http://www.w3.org/2000/svg">
  <defs
     id="defs12" />
  <path
     d="m 128.35001,38.866287 c 0.92125,-0.0023 1.8425,-0.0045 2.79167,-0.0069 3.076,-0.0063 6.15195,-0.0055 9.22795,-0.0047 2.20964,-0.003 4.41928,-0.0064 6.62892,-0.01018 5.99354,-0.0088 11.98706,-0.01118 17.9806,-0.01181 5.00285,-9.5e-4 10.00569,-0.0046 15.00854,-0.0082 11.12516,-0.0077 22.25032,-0.01067 33.37549,-0.01 1.0002,6e-5 1.0002,6e-5 2.02061,1.21e-4 0.66762,4.1e-5 1.33524,8.2e-5 2.02309,1.24e-4 10.83086,4.07e-4 21.66168,-0.0092 32.49253,-0.02326 11.12747,-0.01436 22.25494,-0.02109 33.38243,-0.02041 6.24481,2.56e-4 12.48958,-0.0026 18.73439,-0.01318 5.86868,-0.0097 11.73728,-0.0098 17.60596,-0.0025 2.15551,10e-4 4.31103,-0.0013 6.46653,-0.0074 2.9385,-0.0077 5.87674,-0.0031 8.81525,0.0046 1.28418,-0.0077 1.28418,-0.0077 2.59431,-0.01559 5.14452,0.02997 9.32323,0.27059 13.29494,3.902717 0.53359,0.640906 1.06718,1.281812 1.61694,1.942139 0.597,0.716235 1.19399,1.43247 1.80908,2.17041 2.8352,3.578396 5.54617,7.233784 8.21826,10.935059 5.10531,7.002506 10.29193,13.93355 15.5625,20.8125 5.64885,7.379457 11.20615,14.817528 16.69556,22.316163 5.14305,7.00753 10.40861,13.91862 15.71265,20.80493 13.71822,17.8774 13.71822,17.8774 13.71205,25.46586 0.002,1.94779 0.002,1.94779 0.004,3.93493 -0.004,1.4473 -0.007,2.8946 -0.0109,4.34189 -2.8e-4,1.51752 -1.2e-4,3.03504 4.4e-4,4.55255 2.9e-4,4.12786 -0.006,8.2557 -0.0126,12.38355 -0.006,4.31084 -0.007,8.62168 -0.008,12.93252 -0.003,8.16687 -0.0113,16.33371 -0.0213,24.50057 -0.0112,9.29612 -0.0167,18.59224 -0.0217,27.88836 -0.0105,19.12624 -0.0281,38.25246 -0.0503,57.37868 0.57542,-0.008 1.15084,-0.0157 1.7437,-0.0238 2.63098,-0.0314 5.26193,-0.0507 7.89302,-0.07 1.35781,-0.0188 1.35781,-0.0188 2.74304,-0.0381 7.71454,-0.0422 13.66764,0.70927 19.65931,5.89746 7.867,8.22312 8.4047,16.65057 8.36499,27.56006 0.006,1.33469 0.0127,2.66939 0.0208,4.00407 0.0179,3.60553 0.0168,7.21081 0.0111,10.81636 -0.003,3.01915 0.003,6.03826 0.009,9.0574 0.014,7.12784 0.0125,14.25556 10e-4,21.3834 -0.0115,7.33233 0.003,14.66429 0.0294,21.99657 0.0222,6.31452 0.0288,12.62892 0.0229,18.94348 -0.003,3.76289 -10e-4,7.52555 0.0162,11.28841 0.0156,3.54115 0.0114,7.08177 -0.007,10.6229 -0.005,1.90407 0.009,3.80817 0.0237,5.71219 -0.0706,8.29341 -1.20232,15.54882 -6.39038,22.25188 -0.62391,0.5066 -1.24781,1.0132 -1.89063,1.53515 -0.92039,0.78698 -0.92039,0.78698 -1.85937,1.58985 -8.23315,5.07173 -16.24815,4.90117 -25.60448,4.86033 -1.55554,0.004 -3.11108,0.01 -4.66662,0.0163 -4.263,0.0144 -8.52581,0.0102 -12.78883,0.003 -4.602,-0.005 -9.20396,0.008 -13.80595,0.018 -9.01103,0.0172 -18.022,0.018 -27.03305,0.0128 -7.3243,-0.004 -14.64858,-0.003 -21.97288,0.003 -1.56395,10e-4 -1.56395,10e-4 -3.15949,0.002 -2.11812,0.002 -4.23625,0.003 -6.35437,0.005 -19.86053,0.0137 -39.72102,0.008 -59.58155,-0.003 -18.16763,-0.01 -36.33515,0.003 -54.50275,0.0269 -18.65795,0.0244 -37.31584,0.034 -55.9738,0.0273 -10.47368,-0.003 -20.94728,-10e-4 -31.42094,0.0163 -8.91556,0.0147 -17.83097,0.0154 -26.74652,-0.002 -4.54798,-0.009 -9.09572,-0.0106 -13.643683,0.005 -4.16561,0.0138 -8.330776,0.009 -12.496361,-0.0102 -1.50462,-0.004 -3.009276,-8.2e-4 -4.513865,0.01 -9.766834,0.0629 -17.4073,-0.88206 -25.437987,-6.76657 -6.828085,-6.98687 -7.806194,-14.68459 -7.827942,-24.19977 -0.003,-0.72902 -0.0059,-1.45805 -0.009,-2.20917 -0.0086,-2.43173 -0.01019,-4.86341 -0.01169,-7.29516 -0.0046,-1.74818 -0.0097,-3.49637 -0.01505,-5.24455 -0.01309,-4.7419 -0.01956,-9.48379 -0.02401,-14.2257 -0.0029,-2.96537 -0.007,-5.93074 -0.0115,-8.8961 -0.01367,-9.28622 -0.02334,-18.57242 -0.0272,-27.85865 -0.0045,-10.70439 -0.02203,-21.40865 -0.051,-32.11301 -0.02164,-8.28471 -0.03171,-16.56938 -0.03304,-24.85413 -10e-4,-4.94331 -0.0069,-9.8865 -0.02482,-14.82978 -0.01653,-4.65233 -0.01861,-9.30445 -0.0099,-13.9568 7.68e-4,-1.7019 -0.0035,-3.40381 -0.01346,-5.10567 -0.06278,-11.4495 0.09214,-21.97146 7.624981,-31.2701 5.613231,-5.43743 12.48219,-6.82473 20.042969,-6.78906 1.205273,0.003 2.410547,0.006 3.652344,0.01 1.254257,0.008 2.508515,0.0168 3.800781,0.0254 1.90459,0.007 1.90459,0.007 3.847656,0.0137 3.134162,0.0118 6.268229,0.0282 9.402344,0.0488 -0.0028,-0.9503 -0.0055,-1.90059 -0.0084,-2.87969 -0.06663,-23.13603 -0.115915,-46.27205 -0.147057,-69.40816 -0.01546,-11.18851 -0.03654,-22.37695 -0.07088,-33.56542 -0.02993,-9.75327 -0.04926,-19.50649 -0.05595,-29.2598 -0.0039,-5.16303 -0.01307,-10.32593 -0.03492,-15.488921 -0.02042,-4.863174 -0.02663,-9.726162 -0.02213,-14.589375 -8.23e-4,-1.78133 -0.0068,-3.562668 -0.01829,-5.343961 C 94.508053,54.644558 94.508053,54.644558 102,46 c 8.47373,-6.310853 16.06068,-7.152422 26.35001,-7.133713 z"
     fill="#d6dee2"
     id="path1" />
  <path
     d="m 74.515625,246.90234 c 1.690444,0.004 1.690444,0.004 3.415039,0.008 1.425381,0.009 2.850762,0.0182 4.319336,0.0276 4.5375,0.0206 9.075,0.0412 13.75,0.0625 0,16.17 0,32.34 0,49 6.50635,-0.0321 6.50635,-0.0321 13.14414,-0.0649 39.78146,-0.1945 79.56298,-0.36895 119.34463,-0.52157 5.21452,-0.02 10.42904,-0.0402 15.64355,-0.0605 1.03811,-0.004 2.07623,-0.008 3.1458,-0.0122 16.80626,-0.0658 33.61245,-0.14588 50.41864,-0.2312 17.24625,-0.0872 34.49251,-0.15917 51.73889,-0.2169 10.64091,-0.0361 21.28161,-0.0841 31.92239,-0.14744 7.298,-0.0423 14.59594,-0.0697 21.89403,-0.0854 4.20988,-0.01 8.41947,-0.0256 12.62923,-0.0593 3.85814,-0.0308 7.71587,-0.0427 11.57412,-0.0401 1.39186,-0.002 2.78372,-0.0114 4.17547,-0.0281 9.1847,-0.10525 17.29497,0.54027 24.77146,6.32695 0.5066,0.62391 1.01319,1.24781 1.53515,1.89062 0.78698,0.92039 0.78698,0.92039 1.58985,1.85938 4.77778,7.75597 4.90911,14.81279 4.87671,23.71631 0.006,1.3347 0.0127,2.66939 0.0208,4.00407 0.0179,3.60553 0.0168,7.21081 0.0111,10.81637 -0.003,3.01915 0.003,6.03825 0.009,9.0574 0.014,7.12783 0.0125,14.25555 0.001,21.38339 -0.0115,7.33233 0.003,14.6643 0.0294,21.99658 0.0222,6.31451 0.0288,12.62892 0.0229,18.94347 -0.003,3.76289 -0.001,7.52555 0.0163,11.28842 0.0156,3.54115 0.0114,7.08176 -0.007,10.62289 -0.005,1.90407 0.009,3.80817 0.0237,5.71219 -0.0706,8.29342 -1.20232,15.54882 -6.39038,22.25188 -0.62391,0.5066 -1.24781,1.0132 -1.89063,1.53516 -0.61359,0.52464 -1.22718,1.04929 -1.85937,1.58984 -8.23315,5.07173 -16.24815,4.90117 -25.60448,4.86034 -1.55554,0.004 -3.11109,0.01 -4.66663,0.0163 -4.26299,0.0144 -8.5258,0.0102 -12.78883,0.003 -4.602,-0.005 -9.20396,0.008 -13.80595,0.018 -9.01103,0.0172 -18.022,0.018 -27.03305,0.0128 -7.3243,-0.004 -14.64858,-0.003 -21.97288,0.003 -1.56394,10e-4 -1.56394,10e-4 -3.15947,0.002 -2.11813,0.002 -4.23625,0.003 -6.35438,0.005 -19.86054,0.0137 -39.72102,0.008 -59.58155,-0.003 -18.16762,-0.01 -36.33515,0.003 -54.50275,0.0269 -18.65794,0.0244 -37.31584,0.034 -55.9738,0.0274 -10.47368,-0.003 -20.94728,-10e-4 -31.42095,0.0162 -8.91555,0.0147 -17.83097,0.0154 -26.74651,-0.002 -4.54798,-0.009 -9.09572,-0.0106 -13.643686,0.005 -4.16561,0.0138 -8.330777,0.009 -12.496362,-0.0102 -1.50462,-0.004 -3.009276,-8.2e-4 -4.513865,0.01 -9.766834,0.0629 -17.4073,-0.88206 -25.437987,-6.76657 -6.828085,-6.98688 -7.806194,-14.6846 -7.827942,-24.19977 -0.003,-0.72903 -0.0059,-1.45806 -0.009,-2.20917 -0.0086,-2.43174 -0.01019,-4.86342 -0.01169,-7.29517 -0.0046,-1.74818 -0.0097,-3.49636 -0.01505,-5.24455 -0.01309,-4.7419 -0.01956,-9.48378 -0.02401,-14.2257 -0.0029,-2.96537 -0.007,-5.93073 -0.0115,-8.8961 -0.01367,-9.28622 -0.02334,-18.57242 -0.0272,-27.85864 -0.0045,-10.7044 -0.02203,-21.40866 -0.051,-32.11302 -0.02164,-8.28471 -0.0317,-16.56938 -0.03304,-24.85412 -10e-4,-4.94332 -0.0069,-9.88651 -0.02482,-14.82979 -0.01653,-4.65233 -0.01861,-9.30445 -0.0099,-13.9568 7.67e-4,-1.7019 -0.0035,-3.4038 -0.01346,-5.10567 -0.06278,-11.4495 0.09214,-21.97146 7.624981,-31.2701 5.687776,-5.51136 12.611411,-6.82535 20.261506,-6.79058 z"
     fill="#1fb35b"
     id="path2" />
  <path
     d="m 157.63379,103.5459 c 0.97594,-5.8e-4 1.95188,-0.001 2.9574,-0.002 3.22517,0.003 6.44942,0.0339 9.67444,0.0653 2.2363,0.007 4.47261,0.0131 6.70892,0.0172 5.88562,0.0153 11.77085,0.0546 17.65631,0.0988 7.06176,0.0481 14.12364,0.0665 21.18552,0.0898 10.72815,0.0388 21.45543,0.11543 32.18362,0.18484 0,23.76 0,47.52 0,72 -34.32,0 -68.64,0 -104,0 -0.0825,-11.1375 -0.165,-22.275 -0.25,-33.75 -0.0364,-3.51366 -0.0728,-7.02732 -0.11035,-10.64746 -0.0181,-4.29834 -0.0181,-4.29834 -0.0214,-6.31207 -0.006,-1.40321 -0.0202,-2.8064 -0.0405,-4.20948 -0.0293,-2.1286 -0.0333,-4.25592 -0.0318,-6.3847 -0.009,-1.19913 -0.0178,-2.39826 -0.0269,-3.63373 C 144,108 144,108 145.42627,105.60986 c 3.95585,-2.47437 7.63142,-2.13544 12.20752,-2.06396 z"
     fill="#20b35b"
     id="path3" />
  <path
     d="m 144,192 c 34.32,0 68.64,0 104,0 0,23.76 0,47.52 0,72 -24.50648,0.20054 -24.50648,0.20054 -34.94727,0.24414 -7.12624,0.0299 -14.25217,0.0653 -21.37817,0.13306 -5.74475,0.0543 -11.48916,0.0842 -17.23416,0.0972 -2.1925,0.009 -4.38499,0.0273 -6.57735,0.0543 -3.0696,0.0363 -6.13776,0.0413 -9.20753,0.039 -0.90775,0.018 -1.8155,0.036 -2.75075,0.0545 -4.30432,-0.0352 -6.34735,-0.23773 -9.97276,-2.73771 -2.34717,-3.50421 -2.53914,-5.40681 -2.49964,-9.60241 -6e-4,-0.66472 -0.001,-1.32944 -0.002,-2.0143 0.004,-2.13828 0.0417,-4.27433 0.0812,-6.41222 0.005,-1.31206 0.0101,-2.62412 0.0153,-3.97595 0.0261,-4.89756 0.0959,-9.79481 0.16052,-14.69201 C 143.79062,214.23562 143.89375,203.28375 144,192 Z"
     fill="#20b35c"
     id="path4" />
  <path
     d="m 264,192 c 33.99,0 67.98,0 103,0 0.10313,10.95187 0.20625,21.90375 0.3125,33.1875 0.0455,3.45235 0.091,6.9047 0.13794,10.46167 0.0146,2.73542 0.0273,5.47086 0.0378,8.2063 0.0131,0.70756 0.0261,1.41512 0.0396,2.14412 0.0367,2.09472 0.0417,4.1874 0.0397,6.28239 0.0111,1.17915 0.0222,2.35829 0.0336,3.57317 C 366.7812,260.1444 365.58908,261.52044 362,264 c -3.19865,0.68719 -6.30293,0.63287 -9.56372,0.56763 -0.95658,7.3e-4 -1.91316,10e-4 -2.89873,0.002 -3.15502,-0.004 -6.30856,-0.0423 -9.46333,-0.0816 -2.19003,-0.009 -4.38007,-0.0164 -6.57012,-0.0214 -5.75912,-0.0191 -11.51762,-0.0682 -17.2765,-0.12351 -6.91239,-0.0602 -13.82498,-0.0831 -20.73756,-0.11226 C 284.99292,264.1826 274.49719,264.08679 264,264 c 0,-23.76 0,-47.52 0,-72 z"
     fill="#1fb35b"
     id="path5" />
  <path
     d="m 264,104 c 26.4,0 52.8,0 80,0 0.495,11.385 0.495,11.385 1,23 2.8031,6.7001 5.42151,10.36346 11.58203,14.0625 3.66415,1.42067 7.58163,2.08498 11.41797,2.9375 0,10.56 0,21.12 0,32 -34.32,0 -68.64,0 -104,0 0,-23.76 0,-47.52 0,-72 z"
     fill="#20b35b"
     id="path6" />
  <path
     d="m 344,40 c 4.07352,0.688512 5.76493,1.284787 8.41016,4.519531 0.59699,0.725259 1.19399,1.450518 1.80908,2.197754 2.81316,3.606122 5.54121,7.262069 8.21826,10.970215 5.1053,7.002507 10.29193,13.93355 15.5625,20.8125 5.64885,7.379457 11.20615,14.817529 16.69556,22.31616 5.14305,7.00753 10.40861,13.91862 15.71264,20.80493 3.21699,4.19233 6.39731,8.41121 9.50196,12.6875 0.56984,0.78045 1.13969,1.5609 1.7268,2.36499 1.45744,2.48754 1.86695,4.51046 2.36304,7.32642 -7.91099,0.11641 -15.82162,0.20497 -23.73327,0.25906 -3.67467,0.026 -7.34875,0.0611 -11.02308,0.11814 -3.55325,0.0548 -7.10595,0.0843 -10.65959,0.0972 -1.9996,0.0136 -3.99897,0.0525 -5.99821,0.0921 -7.86793,0.002 -14.1072,-0.8369 -20.58585,-5.5665 -2.33663,-2.50901 -4.26193,-5.04646 -6,-8 -0.34916,-0.52644 -0.69833,-1.05288 -1.05807,-1.59528 -1.39468,-3.56058 -1.20288,-7.07769 -1.16898,-10.84515 -2.9e-4,-0.84914 -5.8e-4,-1.69829 -8.9e-4,-2.57317 10e-4,-2.80286 0.017,-5.60546 0.0326,-8.40827 0.004,-1.94485 0.007,-3.88969 0.009,-5.83454 0.008,-5.1161 0.0273,-10.232087 0.0494,-15.348143 0.0205,-5.221644 0.0296,-10.443306 0.0397,-15.664978 C 343.92379,60.486929 343.95792,50.243474 344,40 Z"
     fill="#afbdc7"
     id="path7" />
  <path
     d="m 288.25781,335.57446 c 2.10535,-0.0119 4.20777,-0.0611 6.3125,-0.11157 9.27577,-0.11246 14.67501,1.12205 21.45312,7.41601 0.44602,0.55559 0.89204,1.11118 1.35157,1.6836 0.46148,0.55816 0.92297,1.11632 1.39843,1.6914 3.1835,4.53193 3.59168,8.31677 3.60157,13.8086 0.0245,0.71994 0.049,1.43988 0.0742,2.18164 0.0292,5.23399 0.0292,5.23399 -2.25391,7.72461 -3.25577,1.5294 -5.65049,1.47435 -9.19531,1.03125 -2.375,-1.375 -2.375,-1.375 -4,-4 -0.34571,-2.53799 -0.50002,-5.00127 -0.53125,-7.5625 C 305.83394,356.13647 304.59772,355.09423 302,353 c -2.74368,-0.59545 -2.74368,-0.59545 -5.75391,-0.4961 -1.1015,-6.4e-4 -2.20301,-10e-4 -3.33789,-0.002 -1.14533,0.02 -2.29066,0.04 -3.4707,0.0606 -1.1492,-0.007 -2.2984,-0.0142 -3.48242,-0.0215 -5.73207,-0.28548 -5.73207,-0.28548 -10.7793,1.83985 -1.61987,2.23068 -1.60917,3.821 -1.61328,6.55664 -0.0193,0.85465 -0.0387,1.70929 -0.0586,2.58984 0.665,3.31453 1.9353,4.28949 4.49609,6.47266 2.89792,1.43792 2.89792,1.43792 6.16406,2.58593 1.20528,0.45633 2.41055,0.91266 3.65235,1.38282 1.2691,0.46991 2.53863,0.93866 3.80859,1.40625 23.58371,8.72375 23.58371,8.72375 29.375,18.625 2.31702,6.95106 2.53697,18.00201 -0.6875,24.75 -3.80144,5.34256 -7.97986,10.0536 -14.3125,12.25 -4.45288,0.49213 -8.86129,0.53397 -13.33325,0.46655 -2.09611,-0.0289 -4.18967,-0.0206 -6.28589,-0.008 -8.22016,-0.0108 -15.27402,-0.0366 -21.8418,-5.50977 -0.63164,-0.74636 -1.26328,-1.49273 -1.91406,-2.26171 -0.64711,-0.73864 -1.29422,-1.47727 -1.96094,-2.23829 -3.24885,-4.78176 -3.97227,-9.37014 -4.03906,-15.07421 -0.0284,-1.10602 -0.0567,-2.21204 -0.0859,-3.35157 0.46094,-3.02343 0.46094,-3.02343 2.23438,-5.38672 2.97559,-2.18732 4.73308,-2.29099 8.32422,-2.07031 1.90234,0.4336 1.90234,0.4336 4.33984,2.3086 1.85855,3.71709 2.08511,6.70619 2.19141,10.82031 0.46192,2.86878 1.06995,3.56377 3.37109,5.30469 4.11518,0.64647 8.2773,0.46316 12.4375,0.4375 1.14533,0.02 2.29066,0.04 3.4707,0.0605 1.65226,-9.7e-4 1.65226,-9.7e-4 3.33789,-0.002 1.00733,0.002 2.01465,0.004 3.05249,0.006 3.39562,-0.63064 4.57511,-1.83777 6.70142,-4.50171 0.58643,-1.98038 0.58643,-1.98038 0.4375,-4 -0.002,-0.99 -0.002,-0.99 -0.004,-2 -0.58853,-2.71468 -1.546,-3.94317 -3.43359,-6 -3.00998,-1.55089 -3.00998,-1.55089 -6.53908,-2.80456 -0.64029,-0.24646 -1.28058,-0.49293 -1.94027,-0.74686 -2.04429,-0.78627 -4.09403,-1.55656 -6.14566,-2.32345 -24.28627,-9.09357 -24.28627,-9.09357 -30.125,-20.5625 -2.41794,-7.04008 -2.77213,-16.10956 0.25,-23 7.05176,-11.62791 17.16127,-12.95438 29.75781,-12.98804 z"
     fill="#d4dee0"
     id="path8" />
  <path
     d="m 102.90479,335.55371 c 3.96879,0.84537 6.03445,3.74431 8.53271,6.75879 0.83568,0.95362 0.83568,0.95362 1.68824,1.92651 1.65175,1.89925 3.26797,3.82323 4.87427,5.76099 0.84304,1.01062 1.68609,2.02125 2.55468,3.0625 1.46784,1.78781 2.92671,3.58303 4.375,5.38672 5.27616,7.15567 5.27616,7.15567 12.07032,12.55078 0.22558,-0.54527 0.45117,-1.09055 0.68359,-1.65234 1.7078,-3.04568 3.98679,-5.40107 6.37891,-7.91016 3.70205,-3.94967 7.23905,-7.95802 10.625,-12.1875 10.45526,-12.84078 10.45526,-12.84078 15.99999,-14.0625 4.24045,1.04011 5.85455,2.20238 8.3125,5.8125 -0.15821,5.66281 -1.55543,8.28109 -5.5,12.25 -3.48563,3.62407 -6.80076,7.25665 -9.9375,11.1875 -2.43335,3.0406 -4.91207,5.97104 -7.60546,8.78125 -0.51184,0.53697 -1.02368,1.07395 -1.55103,1.6272 -1.00265,1.04229 -2.01588,2.07454 -3.04053,3.09521 -2.59726,2.61377 -2.59726,2.61377 -3.48266,6.05884 1.6258,2.91053 3.81324,5.1876 6.11718,7.5625 4.49498,4.75809 8.70302,9.65481 12.78907,14.77344 2.29174,2.76142 4.72948,5.32301 7.21093,7.91406 4.57391,5.0634 4.57391,5.0634 5.375,8.5625 C 179,426 179,426 177,428.9375 174,431 174,431 170.75,431.875 c -8.55699,-1.99663 -14.01598,-11.30606 -19.26562,-17.88672 -3.38928,-4.07673 -7.00681,-7.92292 -10.67505,-11.74902 -3.80932,-4.02808 -3.80932,-4.02808 -3.80932,-6.23926 -8.83858,8.74037 -17.29862,17.83555 -25.00001,27.59766 -5.86291,7.04237 -5.86291,7.04237 -9.09765,8.0664 -3.685128,-0.0733 -5.571814,-0.38311 -8.402345,-2.78906 -1.800195,-3.45037 -2.011471,-5.02037 -1.5,-8.875 1.71917,-2.46651 3.350259,-4.50619 5.375,-6.6875 0.544387,-0.61013 1.088774,-1.22026 1.649655,-1.84888 1.64363,-1.83533 3.30626,-3.65144 4.97534,-5.46362 0.90284,-0.98913 1.80522,-1.97868 2.70704,-2.96875 1.62744,-1.78378 3.25756,-3.56512 4.89062,-5.34375 3.96132,-4.43153 7.68724,-9.04811 11.40235,-13.6875 -2.73305,-4.31299 -5.66445,-7.9611 -9.1875,-11.6875 -4.47438,-4.78694 -8.69048,-9.72161 -12.80079,-14.82813 -1.79802,-2.22047 -3.636781,-4.39136 -5.511715,-6.54687 -3.397196,-3.99171 -3.397196,-3.99171 -3.8125,-7.8125 0.3125,-3.125 0.3125,-3.125 1.8125,-5.5 2.862942,-1.86091 5.012183,-2.14985 8.404785,-2.07129 z"
     fill="#d5dee0"
     id="path9" />
  <path
     d="m 344,336 c 3.66546,2.5577 6.32401,5.42864 9.0625,8.9375 4.02608,5.03091 8.27447,9.77709 12.68774,14.47046 3.21815,3.43121 6.26843,6.95242 9.24976,10.59204 5.00381,-3.72078 8.61125,-8.08818 12.49219,-12.94922 3.50928,-4.26907 7.25633,-8.28657 11.02734,-12.32422 1.62253,-1.78351 3.18677,-3.62229 4.67969,-5.51562 C 405,337 405,337 407,336 c 3.83615,-0.3552 6.1463,-0.54725 9.4375,1.5625 2.15151,3.35636 1.92658,5.4996 1.5625,9.4375 -1.61719,2.70312 -1.61719,2.70312 -3.875,5.25 -1.23363,1.41539 -1.23363,1.41539 -2.49219,2.85937 -0.86883,0.95391 -1.73765,1.90782 -2.63281,2.89063 -1.24137,1.36898 -1.24137,1.36898 -2.50781,2.76562 -1.66129,1.82274 -3.32667,3.64176 -4.9961,5.45704 C 396.38367,371.91113 391.55015,377.85231 387,384 c 0.68965,0.73863 1.3793,1.47727 2.08984,2.23828 5.42789,5.84773 10.63182,11.78986 15.63282,18.01172 3.29477,3.9786 6.79198,7.75264 10.30859,11.53516 2.52605,2.8418 2.92543,3.747 3.28125,7.58984 C 418,427 418,427 416.4375,429.4375 413.01686,431.63022 410.99049,431.63008 407,431 c -2.33203,-2.12109 -2.33203,-2.12109 -5,-5 -1.00495,-1.05494 -2.01017,-2.10961 -3.01563,-3.16406 -1.07995,-1.15193 -2.15801,-2.30564 -3.23437,-3.46094 -0.56848,-0.60956 -1.13695,-1.21913 -1.72266,-1.84717 -4.23478,-4.58011 -8.1955,-9.29863 -12.02734,-14.22314 -2.12913,-2.45349 -4.41013,-4.3533 -7,-6.30469 -6.16388,6.60169 -12.11922,13.2791 -17.79297,20.3125 C 347.33662,429.33169 347.33662,429.33169 344,431 c -3.83615,0.3552 -6.1463,0.54725 -9.4375,-1.5625 C 332.41245,426.08342 332.64,423.93493 333,420 c 1.58203,-2.66797 1.58203,-2.66797 3.8125,-5.1875 1.2317,-1.41346 1.2317,-1.41346 2.48828,-2.85547 0.89697,-0.9882 1.79676,-1.97385 2.69922,-2.95703 0.44908,-0.49194 0.89815,-0.98388 1.36084,-1.49072 1.83709,-2.00868 3.67845,-4.01316 5.53076,-6.00782 C 354.29476,395.66232 359.58299,389.62552 364,383 c -0.61746,-0.66645 -1.23492,-1.33289 -1.87109,-2.01953 -4.32648,-4.70841 -8.55576,-9.43372 -12.56641,-14.41797 -3.82203,-4.74507 -7.85412,-9.23893 -12.02124,-13.67944 -3.02724,-3.24126 -4.43815,-4.76945 -4.85376,-9.25806 C 333,340 333,340 334.5625,337.5625 337.95704,335.38651 340.03656,335.44373 344,336 Z"
     fill="#d5dee0"
     id="path10" />
  <path
     d="m 198,336 c 3.41926,2.64045 4.84255,4.10691 5.60127,8.4106 -0.0111,1.3035 -0.0222,2.607 -0.0336,3.95 7.3e-4,0.72249 0.001,1.44498 0.002,2.18937 -0.003,2.37605 -0.0423,4.75011 -0.0816,7.12581 -0.009,1.65194 -0.0164,3.3039 -0.0214,4.95586 -0.019,4.33881 -0.0681,8.67679 -0.12352,13.01527 -0.0512,4.43073 -0.074,8.8616 -0.0992,13.29254 C 203.19059,397.62669 203.1053,406.31324 203,415 c 1.30671,-0.021 2.61341,-0.0419 3.95972,-0.0635 4.8547,-0.0725 9.70936,-0.11835 14.56445,-0.15625 2.10002,-0.0201 4.19998,-0.0474 6.2998,-0.082 3.02106,-0.0486 6.04137,-0.0712 9.06275,-0.0889 1.40496,-0.031 1.40496,-0.031 2.8383,-0.0626 4.22716,-10e-4 6.63469,0.0748 10.33675,2.26276 2.72889,3.08397 3.08172,5.10097 2.93823,9.19043 -1.65327,2.5992 -2.37172,3.57396 -5,5 -4.26906,0.747 -8.49202,0.67635 -12.81641,0.62891 -1.24861,0.002 -2.49722,0.005 -3.78367,0.007 -2.63769,-9.8e-4 -5.2731,-0.0118 -7.91042,-0.0393 -3.37528,-0.0341 -6.74905,-0.0281 -10.1244,-0.009 -3.22726,0.0131 -6.45428,-0.005 -9.68151,-0.0212 -1.21047,0.005 -2.42095,0.01 -3.6681,0.015 -1.12474,-0.0158 -2.24949,-0.0317 -3.40831,-0.048 -0.98864,-0.006 -1.97727,-0.0124 -2.99587,-0.0188 C 190.10513,430.82363 189.00343,429.96628 187,427 c -0.39458,-2.91851 -0.54737,-5.45943 -0.51758,-8.37695 -0.007,-0.84272 -0.014,-1.68544 -0.0212,-2.5537 -0.0176,-2.78387 -0.006,-5.56672 0.008,-8.3506 -0.003,-1.93526 -0.007,-3.87053 -0.0116,-5.80579 -0.006,-4.05526 0.003,-8.11018 0.0214,-12.1654 0.0228,-5.19899 0.01,-10.39715 -0.0143,-15.59611 -0.0144,-3.99602 -0.01,-7.99184 5.1e-4,-11.98786 0.003,-1.91696 -6.1e-4,-3.83394 -0.01,-5.75089 -0.0102,-2.67906 0.005,-5.35678 0.0276,-8.03575 -0.008,-0.79285 -0.0162,-1.5857 -0.0245,-2.40257 0.0542,-3.51896 0.25707,-5.58411 2.35962,-8.46278 C 192.0644,335.2628 194.14516,335.39134 198,336 Z"
     fill="#d4dee0"
     id="path11" />
  <path
     d="m 82.4375,246.875 c 4.475625,0.0412 8.95125,0.0825 13.5625,0.125 0,16.17 0,32.34 0,49 -4.57875,0.10312 -9.1575,0.20625 -13.875,0.3125 -1.422964,0.0455 -2.845928,0.091 -4.312012,0.13794 -8.938602,0.0968 -15.789755,-1.10384 -22.68164,-7.06738 -5.027655,-5.03336 -8.119576,-12.1097 -8.13916,-19.219 1.112447,-8.10497 4.665733,-14.39085 10.945312,-19.60156 8.081183,-4.12305 15.566246,-3.80385 24.5,-3.6875 z"
     fill="#198043"
     id="path12" />
</svg>
